<svg id="Layer_2" data-name="Layer 2" xmlns="http://www.w3.org/2000/svg" width="67.84" height="61.378" viewBox="0 0 67.84 61.378">
                        <g id="Layer_1" data-name="Layer 1">
                          <path id="Path_2" data-name="Path 2" d="M67.694,25.919c-1.347-8.079-8.752-12.791-16.157-13.463A31.7,31.7,0,0,0,38.745,13.8c4.713-3.366,11.109-3.032,11.109-3.032S47.833,0,31,0c-16.157,0-17.84,13.127-17.84,13.127-2.694,0-15.486,5.386-12.791,17.5s16.157,12.12,16.157,12.12V55.543a55.286,55.286,0,0,1,7.962,1.265c-.913-6.555-1.955-13.127-2.65-14.834a7.509,7.509,0,0,0-2.218-3.428,9.126,9.126,0,0,1-1.783-4.928L16.65,22.4s.183-.381.365-.066l1.9,9.856s.1.529.476.46.183-.407.137-.548-1.566-9.96-1.566-9.96.172-.454.365-.089l2.015,9.709s.073.608.491.531c0,0,.228-.141.057-.757s-1.754-9.641-1.754-9.641.122-.376.343-.135l2.3,9.758s.082.548.44.478.183-.518.155-.754-1.887-9.594-1.887-9.594.13-.341.332-.117l2.457,8.579s1.163,4.32.827,6.443a10.744,10.744,0,0,1-.528,1.672,5.364,5.364,0,0,0-.5,3.435c.089.491,1.931,8.283,3.7,15.747,1.221.345,2.473.75,3.707,1.228.429-8.139.772-17.167.772-17.167-1.395-13.941.933-19.574,2.4-20.919,1.413-1.3,1.7.071,1.7.071L34.145,39.913s-.263,1.427-.343,1.772c-.524,2.23-.559,10.9-.486,18.2.241.122.48.248.716.376a9.686,9.686,0,0,0,3.4,1.115c2-5.863,4.244-12.551,5.021-15.15,1.5-5.03.183-6.283.183-6.283-2.738-5.182.94-10.561,1.46-11.594s6.553-10.563,7.861-.679c1.3,9.785-4.669,13.4-4.835,13.465-2.475.94-2.92,3.725-3.455,5.658-.3,1.075-1.935,8.117-3.43,14.584,5.1-.65,9.278-4.479,9.278-4.479l.677-14.148C60.964,44.77,69.041,34,67.694,25.919Z" transform="translate(0)" fill="#f93481"/>
                        </g>
                      </svg>