<svg xmlns="http://www.w3.org/2000/svg" width="39.925" height="40" viewBox="0 0 39.925 40">
  <g id="category" transform="translate(0.001 0.237)">
    <path id="Path_3" data-name="Path 3" d="M0,39.924V0H39.924V39.924Z" transform="translate(-0.001 -0.182)" fill="none"/>
    <g id="Group_1" data-name="Group 1" transform="translate(-0.001 -0.237)">
      <path id="Path_4" data-name="Path 4" d="M29.031-.23a1.8,1.8,0,0,0-.192.048,1.539,1.539,0,0,0-1.2,1.536V12.1a1.536,1.536,0,1,0,3.071,0V1.354A1.537,1.537,0,0,0,29.031-.23Zm4.607,0a1.8,1.8,0,0,0-.192.048,1.539,1.539,0,0,0-1.2,1.536V12.1a1.536,1.536,0,1,0,3.071,0V1.354A1.537,1.537,0,0,0,33.637-.23Zm4.607,0a1.8,1.8,0,0,0-.192.048,1.539,1.539,0,0,0-1.2,1.536v13.82a3.047,3.047,0,0,1-3.071,3.071,1.539,1.539,0,0,0-1.536,1.536V38.207a1.536,1.536,0,1,0,3.071,0V21.028a6.094,6.094,0,0,0,4.607-5.854V1.354A1.537,1.537,0,0,0,38.244-.23Zm-37,.048A1.535,1.535,0,0,0,0,1.354V14.406A12.991,12.991,0,0,0,9.213,26.738V33.6a2.34,2.34,0,0,1-.96,2.207,6.347,6.347,0,0,1-3.647.864,1.536,1.536,0,1,0,0,3.071,9.063,9.063,0,0,0,5.47-1.44,5.745,5.745,0,0,0,2.207-4.7V25.683A1.539,1.539,0,0,0,11.036,24.2,9.964,9.964,0,0,1,3.07,14.406V2.889H23.032V14.406A9.964,9.964,0,0,1,15.067,24.2a1.539,1.539,0,0,0-1.248,1.488V33.6a5.745,5.745,0,0,0,2.207,4.7,9.063,9.063,0,0,0,5.47,1.44,1.536,1.536,0,1,0,0-3.071,6.347,6.347,0,0,1-3.647-.864,2.34,2.34,0,0,1-.96-2.207V26.738A12.991,12.991,0,0,0,26.1,14.406V1.354A1.539,1.539,0,0,0,24.568-.182H1.247Z" transform="translate(0.001 0.237)" fill="#f93481"/>
    </g>
  </g>
</svg>
